# xmcd CD database file
#
# Track frame offsets:
#	150
#	43987
#	46126
#	72505
#	78174
#	111881
#	129422
#	175322
#	188105
#	197942
#	205368
#
# Disc length: 3285 seconds
#
# Revision: 0
# Processed by: cddbd v1.5.2PL0 Copyright (c) Steve Scherf et al.
# Submitted via: CDex 1.70beta2
#
DISCID=a10cd30b
DTITLE=Scott Earl Holman Trio - Don't Wake The Kids
DYEAR=1900
DGENRE=Jazz
TTITLE0=The Lord's Cause
TTITLE1=Intro
TTITLE2=Noble One
TTITLE3=Intro 2
TTITLE4=His Children's Dance
TTITLE5=The Thought
TTITLE6=Marching In His Band
TTITLE7=Waiting To See
TTITLE8=The Smile
TTITLE9=Intro 3
TTITLE10=The Face Of God
EXTD=
EXTT0=
EXTT1=
EXTT2=
EXTT3=
EXTT4=
EXTT5=
EXTT6=
EXTT7=
EXTT8=
EXTT9=
EXTT10=
PLAYORDER=
